<svg width="4478" height="1364" viewBox="0 0 4478 1364" fill="none" xmlns="http://www.w3.org/2000/svg">
<g clip-path="url(#clip0_3469_2251)">
<path d="M2225.81 1127V1125.56C2227.25 1123.75 2229.78 1122.67 2231.95 1123.03C2242.43 1122.67 2252.55 1122.67 2263.03 1123.03C2265.2 1123.03 2267.73 1123.75 2269.17 1125.56V1127H2225.81Z" fill="#231F20"/>
<path d="M2269.17 1125.56C2254.72 1125.2 2240.26 1125.2 2225.81 1125.56C2205.93 1124.48 2186.06 1123.75 2166.18 1122.31C2113.42 1118.33 2061.03 1110.38 2009.71 1098.46C1832.28 1057.27 1676.53 974.517 1540.66 854.188C1528.01 842.986 1516.09 831.423 1503.8 819.86C1500.91 817.331 1498.38 813.717 1496.94 810.104C1494.77 805.045 1495.85 799.625 1499.47 795.65C1503.08 791.675 1508.86 790.23 1513.92 792.398C1517.17 793.843 1520.43 795.288 1523.32 797.095C1653.05 877.314 1794.7 935.853 1943.22 970.542C1993.09 982.105 2043.32 991.139 2093.91 997.643C2166.55 1006.68 2239.9 1009.93 2312.9 1007.4C2352.29 1006.32 2391.31 1002.7 2430.34 997.643C2521.41 986.08 2611.38 965.483 2698.47 936.576C2744.37 921.399 2789.18 904.054 2832.9 883.819C2839.41 880.205 2847.36 879.121 2854.58 880.928C2866.51 883.819 2873.74 896.105 2870.84 908.029C2870.48 909.474 2869.76 911.281 2869.04 912.727C2866.15 918.147 2862.17 922.844 2857.11 926.458C2815.56 958.979 2770.75 987.526 2723.41 1011.37C2634.15 1056.54 2538.75 1088.7 2440.46 1107.13C2383.73 1117.25 2326.63 1123.39 2269.17 1125.56Z" fill="#231F20"/>
<path d="M1733.99 393.104C1743.03 387.684 1752.42 381.903 1762.18 376.844C1787.48 363.835 1815.66 357.331 1844.21 358.776C1864.81 359.86 1883.6 365.642 1898.05 380.819C1911.78 394.911 1916.84 412.256 1918.29 431.046C1918.65 435.021 1918.65 438.996 1918.65 443.332V630.51C1918.65 646.771 1916.48 648.939 1900.22 648.939H1856.13C1853.24 648.939 1850.35 648.939 1847.46 648.577C1843.13 648.216 1839.51 644.603 1838.79 640.266C1838.07 636.292 1838.07 632.317 1838.07 628.342V461.038C1838.43 454.172 1837.71 447.668 1835.9 441.164C1833.01 429.962 1822.89 422.012 1811.33 421.29C1790 419.844 1768.68 424.18 1749.17 433.214C1746.28 433.937 1744.47 436.827 1744.83 439.718V629.787C1744.83 633.401 1744.83 636.653 1744.11 640.266C1744.11 645.325 1740.14 648.939 1735.08 648.939C1729.66 649.3 1724.24 649.3 1718.45 649.3H1680.15C1666.78 649.3 1663.89 646.048 1663.89 632.678V461.76C1663.89 455.618 1663.53 449.113 1662.08 442.97C1659.55 430.685 1649.07 422.012 1636.79 421.29C1615.1 419.844 1593.06 424.18 1573.55 433.575C1570.66 434.298 1568.85 437.55 1569.57 440.441V633.039C1569.57 646.409 1566.68 649.3 1553.31 649.3H1504.89C1492.24 649.3 1488.99 645.687 1488.99 633.401V382.625C1488.99 379.734 1489.35 376.844 1490.07 373.953C1491.52 369.617 1495.85 367.087 1500.19 367.087H1545.36C1551.87 367.087 1555.84 371.062 1558.01 377.205C1559.82 382.264 1560.9 386.961 1562.71 392.382C1566.32 392.382 1568.49 389.852 1571.02 388.407C1590.89 376.121 1611.85 365.642 1635.34 361.306C1653.41 357.692 1671.48 357.692 1689.55 361.306C1706.53 364.919 1721.71 375.037 1731.46 389.491C1732.19 390.575 1732.91 391.298 1733.63 392.02C1733.27 392.382 1733.63 392.382 1733.99 393.104Z" fill="#231F20"/>
<path d="M2483.1 573.053C2485.27 565.826 2487.44 558.96 2489.6 551.733C2506.23 495.724 2522.85 440.077 2539.47 384.068L2541.64 377.564C2543.45 371.059 2549.59 367.084 2556.1 367.084H2611.02C2624.76 367.084 2627.65 371.059 2622.95 384.068L2601.27 441.522C2577.06 504.397 2552.84 567.633 2528.63 630.507C2527.91 632.675 2526.83 634.843 2526.1 637.011C2523.57 644.6 2515.98 649.659 2508.03 648.936C2492.13 648.574 2476.23 648.574 2460.33 648.936C2449.13 649.297 2442.63 644.238 2438.65 634.121C2429.62 610.272 2420.22 586.061 2411.19 562.212C2389.51 505.481 2367.46 448.749 2345.78 391.656C2343.61 387.32 2342.17 382.261 2341.08 377.564C2340 370.337 2342.53 366.723 2349.76 366.723C2370.35 366.362 2390.95 366.723 2411.19 366.723C2419.86 366.723 2423.84 372.505 2426 380.093C2429.98 393.824 2433.95 407.917 2438.29 421.648C2453.11 471.875 2467.56 522.464 2482.38 572.691C2482.02 573.053 2482.38 573.053 2483.1 573.053Z" fill="#231F20"/>
<path d="M1199.9 406.834C1202.43 406.111 1204.59 404.666 1206.04 402.498C1212.54 395.993 1219.41 389.85 1226.64 384.069C1245.43 369.615 1268.92 362.388 1292.41 364.195C1301.8 364.556 1305.05 367.447 1305.78 376.481C1306.5 388.766 1306.14 401.414 1306.14 413.699C1306.5 418.758 1306.14 423.456 1305.41 428.515C1303.97 435.019 1301.44 437.548 1294.94 438.271C1289.88 438.632 1285.18 438.271 1280.12 437.91C1255.91 435.742 1232.42 440.439 1209.65 448.027C1204.59 449.834 1204.59 453.448 1204.59 457.422V630.869C1204.59 634.122 1204.59 637.012 1204.23 640.265C1203.87 644.962 1200.26 648.576 1195.56 648.576C1193.03 648.937 1190.14 648.937 1187.61 648.937H1140.63C1138.1 648.937 1135.21 648.937 1132.68 648.576C1127.98 648.214 1124.37 644.239 1124.01 639.542C1123.65 636.651 1123.65 633.76 1123.65 630.869V385.153C1123.65 368.531 1125.46 366.724 1142.08 366.724H1176.77C1186.16 366.724 1190.5 369.976 1193.03 379.01C1195.56 388.044 1197.73 397.077 1199.9 406.834Z" fill="#231F20"/>
<path d="M2890.36 773.242C2914.21 773.965 2937.7 775.41 2960.82 781.553C2967.33 783.36 2973.47 785.528 2979.61 788.419C2987.93 791.671 2993.35 799.621 2994.43 808.293C2995.88 818.411 2996.24 828.89 2995.51 839.369C2990.82 901.159 2971.66 960.782 2939.86 1013.9C2928.3 1033.05 2914.21 1050.4 2897.95 1065.57C2894.69 1068.82 2890.72 1071.35 2886.38 1072.8C2879.52 1074.61 2875.18 1070.99 2874.82 1064.13C2875.18 1060.51 2875.9 1056.9 2877.35 1053.29C2890 1019.32 2902.28 985.715 2912.04 950.664C2917.82 931.513 2921.8 912 2924.33 892.126C2925.05 884.899 2925.41 877.672 2924.69 870.445C2924.33 858.159 2916.38 847.68 2904.45 844.066C2893.25 840.453 2881.68 838.285 2869.76 837.562C2836.51 836.117 2803.27 837.562 2770.38 841.898L2726.66 847.319C2721.96 847.68 2717.63 847.319 2715.1 842.982C2712.57 838.646 2713.65 834.31 2716.18 829.974C2719.07 825.999 2722.68 822.386 2727.02 819.856C2753.76 800.705 2783.76 789.142 2815.56 781.553C2840.13 776.494 2865.06 773.965 2890.36 773.242Z" fill="#231F20"/>
<path d="M2738.95 508.012V638.097C2738.23 645.324 2734.97 648.576 2727.75 648.937C2708.23 649.299 2689.08 649.299 2669.57 648.937C2662.34 648.937 2659.09 645.324 2658.37 638.458C2658 636.29 2658 633.761 2658 631.593V381.54C2658.37 370.338 2661.26 367.086 2672.46 367.086H2724.5C2735.7 367.086 2738.95 370.338 2738.95 381.54V508.012Z" fill="#231F20"/>
<path d="M1340.83 507.288V379.01C1341.19 370.338 1344.44 367.085 1353.12 366.724C1371.91 366.363 1390.7 366.363 1409.49 366.724C1417.8 366.724 1420.33 369.254 1421.05 377.565C1421.41 380.817 1421.41 383.707 1421.41 386.96V627.617C1421.41 631.592 1421.05 635.567 1420.69 639.542C1420.33 644.239 1416.72 647.491 1412.02 647.853C1409.85 648.214 1408.04 648.214 1405.88 648.214H1355.65C1353.84 648.214 1352.39 648.214 1350.59 647.853C1345.53 647.491 1341.19 643.517 1340.83 638.458C1340.47 635.567 1340.47 632.676 1340.47 629.785C1340.83 589.676 1340.83 548.482 1340.83 507.288Z" fill="#231F20"/>
<path d="M1382.75 237.366C1388.53 237.005 1394.31 238.089 1399.73 239.896C1419.24 246.4 1429.36 263.383 1427.56 285.425C1426.11 304.215 1412.02 319.392 1393.23 322.283C1385.28 323.728 1376.96 323.728 1369.01 322.283C1348.42 318.308 1333.24 303.131 1334.69 277.114C1336.85 251.459 1353.84 237.366 1382.75 237.366Z" fill="#231F20"/>
<path d="M2698.84 237.364C2706.06 236.641 2713.29 238.087 2720.16 240.977C2734.25 246.398 2744.01 259.406 2744.73 274.583C2747.62 307.465 2725.58 324.087 2696.31 323.365C2692.33 323.365 2688.36 322.642 2684.38 321.919C2661.98 316.499 2650.41 299.154 2652.58 274.221C2654.39 254.347 2669.93 239.532 2691.25 237.725C2693.78 237.364 2696.31 237.003 2698.84 237.364Z" fill="#231F20"/>
<path d="M1070.17 477.656C1068.72 458.866 1063.66 440.438 1056.07 423.454C1041.26 392.378 1018.49 369.613 983.8 361.664C944.05 352.991 908.275 361.664 875.752 385.874C873.584 388.042 871.055 389.849 868.164 391.294C867.441 390.933 866.718 390.572 866.718 390.21C865.634 386.597 864.912 382.983 863.827 379.37C860.937 370.336 857.323 367.084 847.566 367.084C836.725 367.084 825.523 367.445 814.682 367.084C806.37 366.723 798.782 367.807 793 374.311C793 500.783 793 627.616 793.361 753.726C798.059 761.315 805.286 762.76 813.598 762.399C826.607 762.037 839.616 762.399 852.625 762.399C875.391 762.399 875.391 762.399 875.391 739.995V637.011C875.391 634.481 874.307 631.591 876.837 629.423C894.905 643.515 916.948 652.187 939.714 654.356C971.514 657.608 1000.42 649.658 1024.63 627.977C1042.34 611.717 1055.35 590.758 1062.22 567.632C1071.97 538.002 1072.7 508.01 1070.17 477.656ZM983.8 552.455C981.271 563.657 975.489 573.775 967.178 581.363C957.782 589.313 946.219 594.01 933.932 594.01C915.503 595.095 897.434 591.12 881.173 582.447C877.198 580.641 874.668 576.666 875.03 572.33V506.926C875.03 485.245 875.391 463.564 875.03 441.883C874.668 436.824 877.559 432.488 882.257 430.681C902.132 421.286 922.73 416.95 944.412 421.286C959.589 423.454 972.598 433.211 978.741 447.303C984.162 458.866 987.414 471.514 988.137 484.161C990.305 507.287 990.305 530.413 983.8 552.455Z" fill="#231F20"/>
<path d="M3684.64 485.607V487.052C3683.19 485.607 3682.47 483.439 3683.19 481.632V478.741C3683.19 478.741 3683.19 478.38 3683.55 478.38H3683.19V474.767H3683.91C3683.91 474.405 3683.55 474.405 3683.55 474.044C3682.83 467.178 3681.38 460.313 3679.58 453.808C3666.21 406.11 3636.21 374.673 3587.43 362.387C3564.66 356.967 3541.54 356.244 3518.41 359.858C3469.63 367.085 3434.57 393.102 3417.59 439.354C3400.97 483.439 3401.33 531.86 3417.95 575.944C3432.4 616.054 3461.31 641.348 3502.87 651.827C3524.91 657.247 3548.04 658.693 3570.81 655.441C3646.69 646.407 3678.13 588.953 3683.19 539.086H3682.83V534.028C3682.47 531.86 3682.11 530.053 3684.28 528.607V529.33C3684.28 528.969 3684.64 528.246 3685 527.885V486.33C3685 485.968 3684.64 485.968 3684.64 485.607ZM3597.91 554.263C3595.74 561.851 3592.49 568.717 3587.79 575.221C3579.84 586.423 3567.19 593.65 3553.46 594.734C3546.6 595.457 3539.73 595.457 3532.86 594.011C3517.69 591.121 3505.04 581.003 3498.9 566.91C3493.48 555.709 3490.22 543.423 3489.14 531.137C3487.33 509.817 3486.97 488.498 3492.03 467.54C3493.84 459.229 3497.45 450.918 3501.79 443.691C3509.74 430.682 3523.47 422.371 3538.65 421.287C3545.51 420.564 3552.38 420.564 3559.24 422.01C3573.7 424.901 3585.62 434.296 3592.13 447.665C3598.27 460.313 3601.88 474.405 3602.61 488.498C3602.97 495.002 3603.33 501.506 3602.97 508.011C3604.05 523.91 3602.25 539.448 3597.91 554.263Z" fill="#231F20"/>
<path d="M3051.17 239.891H3000.94C2987.2 239.891 2984.67 242.42 2984.67 256.151V373.228C2984.67 375.757 2985.76 378.287 2983.95 380.816C2980.7 380.455 2978.89 378.287 2976.36 376.842C2938.78 354.799 2899.39 350.824 2859.64 369.253C2831.82 382.262 2814.47 405.749 2803.27 433.573C2792.43 460.313 2789.9 488.498 2790.62 517.045C2790.62 543.784 2796.77 570.163 2808.69 594.012C2822.42 620.39 2842.3 640.625 2871.21 649.298C2910.6 661.584 2947.45 655.441 2981.06 630.508C2983.59 629.062 2985.04 626.533 2988.29 625.81C2990.1 629.785 2991.54 634.121 2992.26 638.457C2993.71 644.239 2998.77 648.214 3004.91 648.214H3013.58C3026.59 648.214 3039.24 648.575 3051.89 648.214C3062.01 648.214 3064.9 644.962 3065.26 634.483V253.622C3064.9 242.42 3062.01 239.891 3051.17 239.891ZM2985.04 505.843V571.608C2985.76 575.944 2983.23 579.919 2979.25 581.726C2961.91 591.482 2942.03 595.457 2922.52 592.566C2905.9 590.759 2891.44 580.642 2883.85 565.826C2878.07 554.263 2874.82 541.978 2873.74 529.33C2870.85 506.565 2872.65 483.439 2878.07 461.397C2879.88 455.254 2882.05 449.472 2885.3 443.691C2892.89 429.598 2907.34 420.565 2923.24 419.481C2942.4 417.674 2961.55 421.287 2978.89 429.237C2983.23 430.682 2985.76 435.019 2985.4 439.716C2984.67 462.12 2985.04 483.8 2985.04 505.843Z" fill="#231F20"/>
<path d="M2050.55 530.781C2077.65 535.839 2105.47 536.201 2132.58 531.865C2148.48 529.697 2163.65 524.999 2177.75 517.411C2194.01 508.016 2205.93 495.007 2210.99 476.94C2223.64 431.41 2204.13 385.519 2156.79 368.535C2133.66 360.947 2109.09 358.418 2084.88 361.67C2027.78 368.174 1990.56 399.611 1973.58 454.175C1961.65 491.394 1963.1 529.335 1972.85 566.915C1985.5 614.975 2017.3 643.521 2065.36 653.639C2092.83 659.782 2120.65 658.698 2148.12 654.362C2162.57 651.832 2177.02 648.219 2190.76 642.798C2199.07 639.546 2203.4 634.487 2203.04 625.092C2202.68 616.42 2203.04 607.386 2203.04 598.353C2203.04 587.512 2198.71 584.26 2188.23 586.79C2177.75 589.319 2167.63 591.487 2157.15 593.655C2134.74 598.353 2111.62 598.353 2089.21 594.378C2058.5 588.235 2038.62 561.857 2040.43 529.335C2043.68 529.697 2047.29 530.058 2050.55 530.781ZM2041.51 475.494C2042.6 466.822 2045.13 458.511 2048.38 450.561C2059.22 424.183 2081.99 415.149 2105.11 416.595C2111.62 416.956 2118.12 418.401 2124.27 420.931C2133.66 424.906 2139.8 433.578 2140.89 443.696C2141.97 449.839 2141.61 456.343 2139.8 462.486C2135.47 475.494 2124.99 480.915 2112.34 483.444C2104.75 485.251 2096.8 485.973 2088.85 485.251C2074.76 485.251 2060.3 484.167 2046.21 481.999C2040.79 481.276 2040.79 481.276 2041.51 475.494Z" fill="#231F20"/>
<path d="M3269.43 534.394C3290.39 532.949 3311.35 528.974 3330.14 518.856C3349.29 509.461 3362.66 491.755 3366.64 470.797C3369.17 457.789 3369.17 444.057 3366.28 431.049C3358.69 398.528 3338.09 378.292 3307.01 367.813C3289.67 362.393 3271.24 360.225 3253.17 360.947C3192.46 362.393 3146.2 393.107 3127.41 453.814C3114.77 493.923 3116.57 534.756 3128.86 574.865C3141.51 616.059 3170.42 640.992 3211.61 652.194C3229.32 656.53 3247.75 658.337 3265.82 657.614C3292.2 657.253 3318.58 652.194 3343.51 642.799C3353.99 638.824 3356.52 635.21 3356.52 624.009V597.992C3356.16 587.512 3351.82 583.899 3341.34 586.428C3333.39 588.597 3325.8 590.403 3317.85 592.21C3293.64 597.992 3268.35 599.076 3243.77 594.739C3219.2 590.042 3202.58 575.949 3196.07 551.378C3194.27 544.151 3192.82 536.924 3192.1 529.335C3193.9 529.335 3195.71 529.335 3197.16 530.058C3221.01 534.394 3245.22 536.201 3269.43 534.394ZM3193.9 476.579C3196.43 462.486 3199.69 448.755 3208.36 437.192C3221.73 419.486 3240.16 414.427 3261.12 416.595C3262.92 416.595 3264.37 417.318 3266.18 417.318C3291.47 421.292 3297.62 441.528 3292.92 461.041C3289.3 475.495 3277.38 480.915 3264.01 483.444C3256.78 484.89 3249.19 485.612 3241.6 485.251C3226.79 484.89 3212.33 483.806 3197.88 481.638C3194.63 481.276 3193.18 479.831 3193.9 476.579Z" fill="#231F20"/>
</g>
<defs>
<clipPath id="clip0_3469_2251">
<rect width="2892" height="890" fill="white" transform="translate(793 237)"/>
</clipPath>
</defs>
</svg>
