<svg width="4478" height="1364" viewBox="0 0 4478 1364" fill="none" xmlns="http://www.w3.org/2000/svg">
<mask id="mask0_3469_1550" style="mask-type:luminance" maskUnits="userSpaceOnUse" x="510" y="338" width="3458" height="699">
<path d="M510.25 338.312H3967.75V1036.46H510.25V338.312Z" fill="white"/>
</mask>
<g mask="url(#mask0_3469_1550)">
<path d="M1290.18 350.844C1236.32 349.847 1002.61 349.182 866.306 349.182H510.25V477.176C796.824 477.176 1136.92 476.511 1285.86 478.838C1312.46 479.171 1338.72 481.83 1359.66 500.448C1379.28 517.735 1385.93 544.996 1377.28 568.6C1363.32 606.832 1324.42 616.141 1285.86 616.806C1226.68 617.803 1064.78 618.136 943.767 618.136C646.888 618.468 775.547 618.136 510.25 618.136V745.797C796.824 745.797 1137.59 745.132 1285.86 747.46C1332.07 748.124 1380.94 764.082 1380.94 815.945C1380.94 867.807 1332.07 884.43 1285.86 885.095C1137.92 887.422 796.824 886.757 510.25 886.757V1014.75C797.821 1014.75 1174.16 1015.75 1290.18 1013.09C1351.35 1011.76 1442.11 996.134 1494.64 916.345C1544.18 841.543 1532.21 744.135 1467.05 681.967C1532.21 619.466 1544.18 522.057 1494.64 447.588C1441.78 367.799 1351.35 352.507 1290.18 350.844ZM3574.79 352.773C3498.99 351.11 3384.3 350.113 3283.23 349.781C3036.55 348.783 3184.83 349.116 2949.78 349.116V477.442C3200.12 477.442 3375.32 475.447 3568.48 480.767C3625.32 482.429 3686.16 488.413 3741.02 526.313C3792.88 562.217 3823.8 619.732 3823.8 681.568C3823.8 743.404 3793.88 800.918 3742.02 837.155C3687.16 875.055 3626.32 881.039 3569.47 882.701C3376.32 888.02 3200.78 886.026 2950.78 886.026L2949.78 1014.35C3201.45 1014.35 3382.3 1015.35 3574.79 1010.69C3651.92 1009.03 3746.67 1000.06 3834.44 937.223C3917.55 877.714 3967.75 784.295 3967.75 681.235C3967.75 578.175 3917.55 484.756 3834.44 425.247V426.245C3747 363.411 3651.92 354.435 3574.79 352.773ZM1827.09 546.659C1826.76 484.823 1827.09 411.683 1827.09 349.182H1679.15C1679.15 412.348 1677.82 540.674 1680.48 602.843C1685.47 723.191 1724.7 760.758 1847.7 765.08C1933.14 768.072 2000.63 767.074 2118.65 766.742V637.75C2024.24 637.75 1985.67 637.75 1915.86 636.753C1848.7 635.423 1827.42 613.481 1827.09 546.659ZM2374.31 637.75C2443.46 637.75 2527.9 637.418 2559.82 636.753C2626.97 635.423 2648.25 614.146 2648.58 548.986H2649.58V349.182H2797.19V543.334C2796.85 565.941 2796.52 586.553 2795.86 602.843C2790.87 724.188 2751.31 761.09 2620.65 765.08C2578.1 766.742 2465.07 766.742 2374.64 766.742H2357.02V1014.75H2183.15V637.75H2374.31Z" fill="#231F20"/>
</g>
</svg>
