<svg width="4478" height="1364" viewBox="0 0 4478 1364" fill="none" xmlns="http://www.w3.org/2000/svg">
<g clip-path="url(#clip0_3469_2365)">
<path d="M4172.49 293.001H1377.19C1368.83 293.001 1360.82 296.322 1354.9 302.233C1348.99 308.144 1345.67 316.161 1345.67 324.52V1039.48C1345.67 1047.84 1348.99 1055.86 1354.9 1061.77C1360.82 1067.68 1368.83 1071 1377.19 1071H4172.49C4180.84 1071 4188.86 1067.68 4194.77 1061.77C4200.68 1055.86 4204 1047.84 4204 1039.48V324.52C4204.14 320.343 4203.42 316.183 4201.89 312.296C4200.35 308.409 4198.04 304.879 4195.08 301.925C4192.13 298.97 4188.6 296.653 4184.71 295.118C4180.82 293.583 4176.66 292.863 4172.49 293.001Z" fill="white" fill-opacity="0.42"/>
<path d="M1266.04 293.002H305.521C301.344 292.863 297.183 293.584 293.296 295.119C289.41 296.654 285.88 298.97 282.925 301.925C279.97 304.88 277.653 308.41 276.118 312.297C274.583 316.183 273.863 320.344 274.001 324.52V1039.48C274.001 1047.84 277.322 1055.86 283.233 1061.77C289.144 1067.68 297.161 1071 305.521 1071H1266.04C1274.4 1071 1282.42 1067.68 1288.33 1061.77C1294.24 1055.86 1297.56 1047.84 1297.56 1039.48V324.52C1297.85 320.305 1297.24 316.076 1295.76 312.118C1294.28 308.16 1291.97 304.566 1288.98 301.578C1285.99 298.59 1282.4 296.279 1278.44 294.799C1274.48 293.32 1270.26 292.707 1266.04 293.002Z" fill="#231F20"/>
<path d="M2279.64 560.078C2176.79 560.078 2092.18 633.067 2092.18 740.893C2092.18 848.718 2176.79 921.707 2279.64 921.707C2382.49 921.707 2467.1 848.718 2467.1 740.893C2467.1 633.067 2382.49 560.078 2279.64 560.078ZM2281.3 848.718H2279.64C2251.48 848.718 2224.48 837.532 2204.56 817.622C2184.65 797.712 2173.47 770.709 2173.47 742.551C2173.47 714.394 2184.65 687.391 2204.56 667.481C2224.48 647.571 2251.48 636.385 2279.64 636.385H2282.96C2296.99 636.068 2310.93 638.597 2323.96 643.82C2336.98 649.043 2348.82 656.851 2358.74 666.774C2368.66 676.696 2376.47 688.527 2381.69 701.551C2386.92 714.575 2389.45 728.523 2389.13 742.551C2389.13 756.634 2386.33 770.577 2380.89 783.567C2375.45 796.557 2367.48 808.335 2357.45 818.215C2347.41 828.096 2335.51 835.881 2322.44 841.117C2309.36 846.354 2295.38 848.938 2281.3 848.718Z" fill="#231F20"/>
<path d="M2014.21 784.025C1998.3 802.924 1978.51 818.184 1956.19 828.773C1933.86 839.362 1909.52 845.034 1884.82 845.402C1839.94 845.402 1796.9 827.576 1765.17 795.844C1733.43 764.112 1715.61 721.075 1715.61 676.2C1715.61 631.324 1733.43 588.287 1765.17 556.555C1796.9 524.824 1839.94 506.997 1884.82 506.997C1909.2 506.889 1933.3 512.188 1955.39 522.515C1977.48 532.841 1997 547.937 2012.55 566.715L2070.62 515.292C2047.08 488.249 2018.02 466.559 1985.4 451.68C1952.78 436.801 1917.35 429.079 1881.5 429.031C1849.15 429.031 1817.11 435.403 1787.22 447.783C1757.34 460.163 1730.18 478.307 1707.3 501.182C1684.43 524.057 1666.28 551.213 1653.9 581.1C1641.52 610.988 1635.15 643.021 1635.15 675.37C1635.15 707.72 1641.52 739.753 1653.9 769.64C1666.28 799.527 1684.43 826.683 1707.3 849.558C1730.18 872.433 1757.34 890.578 1787.22 902.958C1817.11 915.338 1849.15 921.709 1881.5 921.709C1917.62 921.835 1953.35 914.197 1986.26 899.315C2019.18 884.433 2048.51 862.653 2072.28 835.449L2014.21 784.025Z" fill="#231F20"/>
<path d="M3090.86 560.078C2988 560.078 2903.4 634.726 2903.4 740.893V1069.34H2984.69V891.848C3016.42 911.902 3053.32 922.278 3090.86 921.707C3193.71 921.707 3278.32 847.059 3278.32 740.893C3278.32 634.726 3193.71 560.078 3090.86 560.078ZM3092.52 848.718H3090.86C3062.7 848.718 3035.69 837.532 3015.78 817.622C2995.87 797.712 2984.69 770.709 2984.69 742.551C2984.69 714.394 2995.87 687.391 3015.78 667.481C3035.69 647.571 3062.7 636.385 3090.86 636.385H3094.18C3108.2 636.068 3122.15 638.597 3135.18 643.82C3148.2 649.043 3160.03 656.851 3169.96 666.774C3179.88 676.696 3187.69 688.527 3192.91 701.551C3198.13 714.575 3200.66 728.523 3200.35 742.551C3199.78 770.819 3188.19 797.747 3168.04 817.583C3147.9 837.42 3120.79 848.593 3092.52 848.718Z" fill="#231F20"/>
<path d="M2686.08 560.078C2583.22 560.078 2498.62 634.726 2498.62 740.893V1069.34H2579.91V891.848C2611.64 911.902 2648.54 922.278 2686.08 921.707C2788.93 921.707 2873.53 847.059 2873.53 740.893C2873.53 634.726 2787.27 560.078 2686.08 560.078ZM2686.08 848.718H2684.42C2656.26 848.718 2629.25 837.532 2609.34 817.622C2589.43 797.712 2578.25 770.709 2578.25 742.551C2578.25 714.394 2589.43 687.391 2609.34 667.481C2629.25 647.571 2656.26 636.385 2684.42 636.385H2687.74C2701.76 636.068 2715.71 638.597 2728.74 643.82C2741.76 649.043 2753.59 656.851 2763.52 666.774C2773.44 676.696 2781.25 688.527 2786.47 701.551C2791.69 714.575 2794.22 728.523 2793.91 742.551C2793.91 756.634 2791.11 770.577 2785.67 783.567C2780.23 796.557 2772.26 808.335 2762.23 818.215C2752.19 828.096 2740.29 835.881 2727.22 841.117C2714.14 846.354 2700.16 848.938 2686.08 848.718Z" fill="#231F20"/>
<path d="M3472.4 560.078C3448.98 560.13 3425.81 564.893 3404.26 574.082C3382.72 583.272 3363.24 596.7 3346.99 613.57C3330.74 630.439 3318.04 650.403 3309.67 672.277C3301.29 694.15 3297.39 717.484 3298.22 740.893C3298.22 848.718 3377.85 921.707 3472.4 921.707C3528.81 921.707 3590.19 903.46 3621.71 858.671L3573.6 810.564C3561.89 822.936 3547.73 832.721 3532.01 839.292C3516.3 845.863 3499.39 849.073 3482.36 848.718C3419.32 848.718 3377.85 812.223 3377.85 759.14H3644.93C3644.93 752.505 3646.59 745.869 3646.59 737.575C3646.59 634.727 3578.58 560.078 3472.4 560.078ZM3379.5 706.057C3379.5 674.539 3420.98 629.75 3477.38 629.75C3513.88 629.75 3563.65 657.95 3563.65 706.057H3379.5Z" fill="#231F20"/>
<path d="M3757.74 740.892V435.664H3676.45V740.892C3676.45 847.058 3759.4 920.048 3860.59 921.707V847.059C3846.77 847.183 3833.07 844.496 3820.31 839.161C3807.56 833.827 3796.02 825.957 3786.4 816.028C3776.78 806.099 3769.28 794.319 3764.36 781.403C3759.43 768.487 3757.18 754.704 3757.74 740.892Z" fill="#231F20"/>
<path d="M1189.73 679.511H673.805C675.828 670.802 676.94 661.907 677.123 652.969C677.166 641.193 674.879 629.525 670.393 618.637C665.906 607.749 659.31 597.857 650.983 589.53C642.655 581.203 632.762 574.607 621.874 570.121C610.986 565.635 599.317 563.347 587.541 563.391C567.196 563.468 547.467 570.378 531.522 583.013C515.577 595.648 504.341 613.275 499.617 633.063C491.072 630.228 482.054 629.101 473.075 629.745C449.316 629.745 426.53 639.183 409.73 655.982C392.93 672.781 383.492 695.565 383.492 719.323C383.492 743.08 392.93 765.865 409.73 782.664C426.53 799.463 449.316 808.901 473.075 808.901C482.006 808.614 490.89 807.504 499.617 805.583C504.341 825.371 515.577 842.998 531.522 855.633C547.467 868.268 567.196 875.178 587.541 875.255C599.317 875.298 610.986 873.011 621.874 868.525C632.762 864.039 642.655 857.443 650.983 849.116C659.31 840.789 665.906 830.896 670.393 820.009C674.879 809.121 677.166 797.453 677.123 785.677C676.836 776.746 675.725 767.861 673.805 759.135H1023.84V866.96H1065.31V812.219H1105.13V866.96H1146.6V759.135H1188.07V679.511H1189.73ZM587.541 613.157C595.415 613.157 603.113 615.492 609.66 619.866C616.208 624.241 621.311 630.459 624.324 637.734C627.338 645.008 628.126 653.013 626.59 660.736C625.054 668.459 621.262 675.553 615.693 681.12C610.125 686.688 603.031 690.48 595.308 692.016C587.585 693.552 579.579 692.764 572.304 689.751C565.029 686.738 558.811 681.635 554.436 675.088C550.061 668.541 547.726 660.843 547.726 652.969C547.516 647.684 548.402 642.414 550.329 637.488C552.255 632.563 555.18 628.089 558.92 624.35C562.66 620.61 567.133 617.685 572.059 615.759C576.985 613.832 582.256 612.946 587.541 613.157ZM433.26 719.323C433.26 711.449 435.595 703.751 439.97 697.204C444.345 690.657 450.563 685.554 457.838 682.541C465.113 679.528 473.119 678.739 480.842 680.276C488.565 681.812 495.659 685.604 501.228 691.171C506.796 696.739 510.588 703.833 512.124 711.556C513.66 719.279 512.871 727.283 509.858 734.558C506.844 741.833 501.741 748.051 495.194 752.425C488.646 756.8 480.949 759.135 473.075 759.135C462.555 759.006 452.503 754.77 445.064 747.332C437.625 739.893 433.389 729.842 433.26 719.323ZM587.541 823.83C579.666 823.83 571.968 821.496 565.421 817.121C558.873 812.746 553.77 806.528 550.757 799.254C547.743 791.979 546.955 783.974 548.491 776.251C550.028 768.528 553.82 761.434 559.388 755.866C564.956 750.299 572.05 746.507 579.773 744.971C587.496 743.434 595.502 744.223 602.777 747.236C610.052 750.249 616.27 755.352 620.645 761.899C625.02 768.446 627.355 776.144 627.355 784.018C627.226 794.537 622.99 804.588 615.551 812.027C608.112 819.465 598.06 823.701 587.541 823.83Z" fill="white" fill-opacity="0.42"/>
<path d="M3960.14 885.212C3960.47 892.82 3958.52 900.353 3954.53 906.842C3950.55 913.33 3944.71 918.477 3937.77 921.621C3930.84 924.765 3923.12 925.761 3915.61 924.482C3908.1 923.203 3901.15 919.706 3895.65 914.442C3890.15 909.178 3886.34 902.388 3884.73 894.945C3883.12 887.503 3883.77 879.748 3886.6 872.679C3889.44 865.611 3894.32 859.551 3900.63 855.28C3906.93 851.01 3914.37 848.724 3921.99 848.717C3931.87 848.539 3941.43 852.274 3948.58 859.109C3955.72 865.945 3959.88 875.327 3960.14 885.212ZM3893.78 885.212C3894.11 890.707 3896.03 895.987 3899.32 900.402C3902.61 904.816 3907.12 908.171 3912.29 910.054C3917.47 911.936 3923.08 912.263 3928.44 910.995C3933.79 909.726 3938.66 906.918 3942.44 902.916C3946.22 898.914 3948.75 893.893 3949.71 888.473C3950.67 883.053 3950.02 877.47 3947.85 872.413C3945.67 867.356 3942.06 863.046 3937.47 860.014C3932.87 856.983 3927.49 855.362 3921.99 855.353C3914.32 855.655 3907.07 858.95 3901.8 864.531C3896.52 870.112 3893.65 877.536 3893.78 885.212ZM3917.01 905.118H3908.71V868.623C3912.03 868.623 3917.01 866.964 3923.65 866.964C3928.29 866.852 3932.87 867.998 3936.92 870.282C3939 872.55 3940.18 875.5 3940.23 878.577C3940.23 881.894 3936.92 885.212 3931.94 886.871C3933.63 887.626 3935.11 888.772 3936.26 890.215C3937.42 891.657 3938.21 893.354 3938.58 895.165C3940.23 900.142 3940.23 903.459 3941.89 905.118H3931.94C3930.28 903.459 3930.28 900.142 3928.62 896.824C3928.37 894.857 3927.37 893.064 3925.82 891.826C3924.27 890.587 3922.3 890 3920.33 890.188H3917.01V905.118ZM3917.01 883.553H3920.33C3925.3 883.553 3928.62 881.894 3928.62 878.577C3928.62 875.259 3925.3 873.6 3920.33 873.6H3915.35V883.553H3917.01Z" fill="#231F20"/>
</g>
<defs>
<clipPath id="clip0_3469_2365">
<rect width="3930" height="778" fill="white" transform="translate(274 293)"/>
</clipPath>
</defs>
</svg>
