<svg width="895" height="264" viewBox="0 0 895 264" fill="none" xmlns="http://www.w3.org/2000/svg">
<path d="M168.951 60.8672C208.641 60.8673 240.815 93.0421 240.815 132.731C240.815 171.616 209.292 203.139 170.407 203.139H100V81.3672C100 70.0454 109.178 60.8672 120.5 60.8672H168.951ZM129.128 90.7236V133.46C129.128 155.855 147.284 174.011 169.68 174.011C192.075 174.01 210.23 155.855 210.23 133.46V132.367C210.23 109.368 191.586 90.7236 168.587 90.7236H129.128Z" fill="#25F89D"/>
<path d="M284.513 189.86C279.713 189.86 275.753 189.06 272.633 187.46C269.513 185.86 267.033 183.82 265.193 181.34C263.353 178.86 261.993 176.22 261.113 173.42C260.233 170.62 259.653 167.98 259.373 165.5C259.133 162.98 259.013 160.94 259.013 159.38V123.2H273.653V154.4C273.653 156.4 273.793 158.66 274.073 161.18C274.353 163.66 274.993 166.06 275.993 168.38C277.033 170.66 278.553 172.54 280.553 174.02C282.593 175.5 285.333 176.24 288.773 176.24C290.613 176.24 292.433 175.94 294.233 175.34C296.033 174.74 297.653 173.72 299.093 172.28C300.573 170.8 301.753 168.78 302.633 166.22C303.513 163.66 303.953 160.42 303.953 156.5L312.533 160.16C312.533 165.68 311.453 170.68 309.293 175.16C307.173 179.64 304.033 183.22 299.873 185.9C295.713 188.54 290.593 189.86 284.513 189.86ZM305.693 188V167.9H303.953V123.2H318.473V188H305.693ZM363.95 189.8C357.47 189.8 351.81 188.34 346.97 185.42C342.13 182.5 338.37 178.48 335.69 173.36C333.05 168.2 331.73 162.28 331.73 155.6C331.73 148.8 333.09 142.84 335.81 137.72C338.53 132.6 342.31 128.6 347.15 125.72C351.99 122.84 357.59 121.4 363.95 121.4C370.47 121.4 376.15 122.86 380.99 125.78C385.83 128.7 389.59 132.74 392.27 137.9C394.95 143.02 396.29 148.92 396.29 155.6C396.29 162.32 394.93 168.26 392.21 173.42C389.53 178.54 385.77 182.56 380.93 185.48C376.09 188.36 370.43 189.8 363.95 189.8ZM363.95 176.24C369.71 176.24 373.99 174.32 376.79 170.48C379.59 166.64 380.99 161.68 380.99 155.6C380.99 149.32 379.57 144.32 376.73 140.6C373.89 136.84 369.63 134.96 363.95 134.96C360.07 134.96 356.87 135.84 354.35 137.6C351.87 139.32 350.03 141.74 348.83 144.86C347.63 147.94 347.03 151.52 347.03 155.6C347.03 161.88 348.45 166.9 351.29 170.66C354.17 174.38 358.39 176.24 363.95 176.24ZM471.513 188C467.233 188.8 463.033 189.14 458.913 189.02C454.833 188.94 451.173 188.2 447.933 186.8C444.693 185.36 442.233 183.1 440.553 180.02C439.073 177.22 438.293 174.36 438.213 171.44C438.133 168.52 438.093 165.22 438.093 161.54V105.2H452.493V160.7C452.493 163.3 452.513 165.58 452.553 167.54C452.633 169.5 453.053 171.1 453.813 172.34C455.253 174.74 457.553 176.08 460.713 176.36C463.873 176.64 467.473 176.48 471.513 175.88V188ZM426.333 134.54V123.2H471.513V134.54H426.333ZM503.567 189.8C498.887 189.8 494.927 188.92 491.687 187.16C488.447 185.36 485.987 182.98 484.307 180.02C482.667 177.06 481.847 173.8 481.847 170.24C481.847 167.12 482.367 164.32 483.407 161.84C484.447 159.32 486.047 157.16 488.207 155.36C490.367 153.52 493.167 152.02 496.607 150.86C499.207 150.02 502.247 149.26 505.727 148.58C509.247 147.9 513.047 147.28 517.127 146.72C521.247 146.12 525.547 145.48 530.027 144.8L524.867 147.74C524.907 143.26 523.907 139.96 521.867 137.84C519.827 135.72 516.387 134.66 511.547 134.66C508.627 134.66 505.807 135.34 503.087 136.7C500.367 138.06 498.467 140.4 497.387 143.72L484.187 139.58C485.787 134.1 488.827 129.7 493.307 126.38C497.827 123.06 503.907 121.4 511.547 121.4C517.307 121.4 522.367 122.34 526.727 124.22C531.127 126.1 534.387 129.18 536.507 133.46C537.667 135.74 538.367 138.08 538.607 140.48C538.847 142.84 538.967 145.42 538.967 148.22V188H526.307V173.96L528.407 176.24C525.487 180.92 522.067 184.36 518.147 186.56C514.267 188.72 509.407 189.8 503.567 189.8ZM506.447 178.28C509.727 178.28 512.527 177.7 514.847 176.54C517.167 175.38 519.007 173.96 520.367 172.28C521.767 170.6 522.707 169.02 523.187 167.54C523.947 165.7 524.367 163.6 524.447 161.24C524.567 158.84 524.627 156.9 524.627 155.42L529.067 156.74C524.707 157.42 520.967 158.02 517.847 158.54C514.727 159.06 512.047 159.56 509.807 160.04C507.567 160.48 505.587 160.98 503.867 161.54C502.187 162.14 500.767 162.84 499.607 163.64C498.447 164.44 497.547 165.36 496.907 166.4C496.307 167.44 496.007 168.66 496.007 170.06C496.007 171.66 496.407 173.08 497.207 174.32C498.007 175.52 499.167 176.48 500.687 177.2C502.247 177.92 504.167 178.28 506.447 178.28ZM555.788 188V99.8H570.248V188H555.788ZM617.68 189.8C611.12 189.8 605.36 188.38 600.4 185.54C595.44 182.7 591.56 178.76 588.76 173.72C586 168.68 584.62 162.88 584.62 156.32C584.62 149.24 585.98 143.1 588.7 137.9C591.42 132.66 595.2 128.6 600.04 125.72C604.88 122.84 610.48 121.4 616.84 121.4C623.56 121.4 629.26 122.98 633.94 126.14C638.66 129.26 642.16 133.68 644.44 139.4C646.72 145.12 647.58 151.86 647.02 159.62H632.68V154.34C632.64 147.3 631.4 142.16 628.96 138.92C626.52 135.68 622.68 134.06 617.44 134.06C611.52 134.06 607.12 135.9 604.24 139.58C601.36 143.22 599.92 148.56 599.92 155.6C599.92 162.16 601.36 167.24 604.24 170.84C607.12 174.44 611.32 176.24 616.84 176.24C620.4 176.24 623.46 175.46 626.02 173.9C628.62 172.3 630.62 170 632.02 167L646.3 171.32C643.82 177.16 639.98 181.7 634.78 184.94C629.62 188.18 623.92 189.8 617.68 189.8ZM595.36 159.62V148.7H639.94V159.62H595.36ZM703.47 188V156.8C703.47 154.76 703.33 152.5 703.05 150.02C702.77 147.54 702.11 145.16 701.07 142.88C700.07 140.56 698.55 138.66 696.51 137.18C694.51 135.7 691.79 134.96 688.35 134.96C686.51 134.96 684.69 135.26 682.89 135.86C681.09 136.46 679.45 137.5 677.97 138.98C676.53 140.42 675.37 142.42 674.49 144.98C673.61 147.5 673.17 150.74 673.17 154.7L664.59 151.04C664.59 145.52 665.65 140.52 667.77 136.04C669.93 131.56 673.09 128 677.25 125.36C681.41 122.68 686.53 121.34 692.61 121.34C697.41 121.34 701.37 122.14 704.49 123.74C707.61 125.34 710.09 127.38 711.93 129.86C713.77 132.34 715.13 134.98 716.01 137.78C716.89 140.58 717.45 143.24 717.69 145.76C717.97 148.24 718.11 150.26 718.11 151.82V188H703.47ZM658.53 188V123.2H671.43V143.3H673.17V188H658.53ZM771.747 188C767.467 188.8 763.267 189.14 759.147 189.02C755.067 188.94 751.407 188.2 748.167 186.8C744.927 185.36 742.467 183.1 740.787 180.02C739.307 177.22 738.527 174.36 738.447 171.44C738.367 168.52 738.327 165.22 738.327 161.54V105.2H752.727V160.7C752.727 163.3 752.747 165.58 752.787 167.54C752.867 169.5 753.287 171.1 754.047 172.34C755.487 174.74 757.787 176.08 760.947 176.36C764.107 176.64 767.707 176.48 771.747 175.88V188ZM726.567 134.54V123.2H771.747V134.54H726.567Z" fill="#2E2E2E"/>
</svg>
