<svg width="4478" height="1364" viewBox="0 0 4478 1364" fill="none" xmlns="http://www.w3.org/2000/svg">
<g clip-path="url(#clip0_3469_2274)">
<path d="M2679.74 697.016C2630.52 697.016 2610.07 843.995 2610.07 868.239C2610.07 890.211 2617.64 900.06 2636.58 900.06C2685.8 900.06 2706.25 752.322 2706.25 728.836C2706.25 704.592 2697.16 697.016 2679.74 697.016Z" fill="#231F20"/>
<path d="M1710.42 721.257C1685.43 750.805 1670.28 818.991 1670.28 862.934C1670.28 887.178 1677.1 897.027 1693.76 897.027C1711.93 891.723 1727.08 878.844 1735.41 860.661L1767.97 706.862C1764.18 703.832 1758.88 702.317 1753.58 702.317C1736.92 700.801 1720.26 708.378 1710.42 721.257Z" fill="#231F20"/>
<path d="M888 474.275L1043.24 1341L3590 890.212V0L888 474.275ZM1339.34 974.309H1055.36L1156.08 500.034H1431.73L1401.44 600.041H1256.8L1240.14 679.591H1358.28L1337.83 776.568H1218.93L1198.49 872.786H1361.3L1339.34 974.309ZM1465.81 983.4C1365.85 983.4 1374.94 931.881 1389.32 861.422L1440.06 622.012C1451.42 580.342 1457.48 537.915 1458.24 494.731L1581.67 474.275C1581.67 503.822 1578.65 533.369 1571.83 562.159L1515.79 822.783C1502.92 884.908 1501.4 900.819 1527.91 900.819C1532.45 900.819 1536.99 900.061 1540.78 898.546L1544.57 972.036C1518.82 980.369 1492.32 983.4 1465.81 983.4ZM1770.24 987.946C1755.85 978.097 1746.76 962.944 1743.73 946.276C1719.5 970.52 1686.94 984.158 1652.86 984.915C1581.67 984.915 1551.38 940.215 1551.38 865.21C1550.63 791.72 1577.89 721.261 1627.11 667.469C1667.25 627.315 1710.41 614.436 1771.75 614.436C1817.19 612.92 1862.63 620.497 1905.79 635.649C1894.43 666.712 1885.35 699.29 1879.29 731.868L1852.78 858.392C1849 877.332 1854.3 897.031 1866.41 911.425L1770.24 987.946ZM2058.01 974.309L2105.72 750.051C2111.78 722.776 2108.75 710.654 2089.06 710.654C2067.85 711.412 2048.92 724.292 2039.83 743.232L1989.85 974.309H1871.72L1918.67 753.081C1929.27 714.442 1932.3 674.288 1928.51 634.134L2033.02 614.436C2036.05 626.558 2038.32 639.437 2039.08 652.317C2069.37 627.315 2107.23 614.436 2145.85 614.436C2233.7 614.436 2242.79 664.439 2231.43 715.2L2176.15 974.309H2058.01ZM2348.81 983.4C2251.12 983.4 2203.41 920.517 2228.4 802.327C2253.39 683.38 2325.33 614.436 2429.08 614.436C2469.22 611.405 2507.84 626.558 2535.1 656.105L2465.43 727.322C2455.58 712.169 2438.92 703.078 2421.51 701.563C2394.24 701.563 2373.8 723.534 2358.65 794.751C2343.51 865.968 2345.02 895.515 2379.1 895.515C2405.6 894.758 2431.35 883.393 2449.53 864.453L2485.12 934.154C2447.25 965.975 2398.79 983.4 2348.81 983.4ZM2616.89 983.4C2533.58 983.4 2486.63 937.942 2486.63 856.876C2486.63 766.719 2535.86 614.436 2701.7 614.436C2775.16 614.436 2831.96 650.802 2831.96 738.686C2831.2 831.117 2780.46 983.4 2616.89 983.4Z" fill="#231F20"/>
<path d="M3503.67 960.67H3517.3V997.794H3523.36V960.67H3536.99V954.609H3502.91L3503.67 960.67Z" fill="#231F20"/>
<path d="M3553.65 997.794V958.398L3565.77 997.794H3571.07L3583.19 958.398V997.794H3589.24V954.609H3577.88L3568.04 986.43L3558.2 954.609H3546.84V997.794H3553.65Z" fill="#231F20"/>
</g>
<defs>
<clipPath id="clip0_3469_2274">
<rect width="2702" height="1341" fill="white" transform="translate(888)"/>
</clipPath>
</defs>
</svg>
