<svg width="4478" height="1364" viewBox="0 0 4478 1364" fill="none" xmlns="http://www.w3.org/2000/svg">
<g clip-path="url(#clip0_3469_2295)">
<path fill-rule="evenodd" clip-rule="evenodd" d="M1669.56 687.773V401.847C1669.56 361.396 1629.09 326.328 1588.64 326.328C1548.19 326.328 1502.32 339.812 1486.15 404.547C1469.97 469.283 1451.09 523.217 1445.69 536.718C1443 543.46 1444.54 542.888 1443.15 542.941C1441.79 542.888 1443.33 543.46 1440.63 536.718C1435.22 523.235 1416.34 469.283 1400.16 404.547C1383.97 339.812 1338.12 326.328 1297.65 326.328C1257.2 326.328 1216.73 361.378 1216.73 401.847C1216.73 415.885 1215.05 556.962 1215.05 556.962C1253.3 605.336 1274.07 665.217 1273.99 726.883C1273.99 878.528 1151.03 1001.51 999.351 1001.51C847.688 1001.51 724.709 878.528 724.709 726.883C724.709 575.184 847.67 452.222 999.351 452.222C1070.79 452.222 1135.85 479.511 1184.71 524.218V451.203C1129.97 414.216 1065.41 394.489 999.351 394.569C815.839 394.569 667.055 543.335 667.055 726.883C667.055 910.395 815.821 1059.14 999.351 1059.14C1182.88 1059.14 1331.65 910.395 1331.65 726.883C1331.65 723.253 1331.49 719.694 1331.38 716.082V540.742C1331.38 540.742 1351.41 555.406 1383.97 696.518C1389.87 722.055 1403.41 787.72 1443.15 791.422C1482.88 787.72 1496.42 722.055 1502.32 696.518C1534.88 555.406 1554.91 540.742 1554.91 540.742V726.865C1554.91 779.422 1577.18 787.541 1603.46 787.541H1685.73C1685.73 787.541 1669.56 787.559 1669.56 687.773Z" fill="#231F20"/>
<path fill-rule="evenodd" clip-rule="evenodd" d="M999.351 480.836C863.478 480.836 753.32 590.993 753.32 726.884C753.32 862.757 863.478 972.915 999.351 972.915C1135.24 972.915 1245.38 862.757 1245.38 726.884C1245.4 590.993 1135.24 480.836 999.351 480.836Z" fill="#231F20"/>
<path fill-rule="evenodd" clip-rule="evenodd" d="M999.351 912.828C896.65 912.828 813.406 829.566 813.406 726.884C813.406 673.879 835.599 626.115 871.167 592.245C883.882 606.658 926.729 646.841 998.6 631.784C998.6 631.784 974.315 621.68 974.315 601.455C974.315 601.455 1035.01 643.926 1101.76 605.496C1101.76 605.496 1035.21 574.899 1034.44 544.266C1120.36 560.682 1185.33 636.183 1185.33 726.884C1185.33 829.566 1102.07 912.828 999.351 912.828Z" fill="white"/>
<path fill-rule="evenodd" clip-rule="evenodd" d="M923.763 689.066C926.843 689.19 929.916 688.691 932.798 687.599C935.68 686.506 938.312 684.843 940.535 682.709C942.759 680.575 944.529 678.014 945.738 675.179C946.948 672.344 947.573 669.295 947.575 666.213C947.578 663.13 946.958 660.08 945.752 657.243C944.547 654.406 942.781 651.842 940.561 649.705C938.341 647.567 935.712 645.9 932.831 644.803C929.951 643.706 926.879 643.202 923.799 643.322C917.889 643.551 912.298 646.059 908.196 650.319C904.094 654.58 901.8 660.263 901.796 666.177C901.791 672.091 904.076 677.777 908.171 682.044C912.266 686.311 917.854 688.828 923.763 689.066ZM1069.4 689.066C1072.48 689.19 1075.55 688.691 1078.43 687.599C1081.32 686.506 1083.95 684.843 1086.17 682.709C1088.4 680.575 1090.17 678.014 1091.38 675.179C1092.59 672.344 1093.21 669.295 1093.21 666.213C1093.21 663.13 1092.59 660.08 1091.39 657.243C1090.18 654.406 1088.42 651.842 1086.2 649.705C1083.98 647.567 1081.35 645.9 1078.47 644.803C1075.59 643.706 1072.52 643.202 1069.44 643.322C1063.53 643.551 1057.93 646.059 1053.83 650.319C1049.73 654.58 1047.44 660.263 1047.43 666.177C1047.43 672.091 1049.71 677.777 1053.81 682.044C1057.9 686.311 1063.49 688.828 1069.4 689.066ZM909.6 723.848C934.851 731.037 1027.93 764.298 1087.62 704.606C1100.77 691.48 1118.97 715.747 1103.81 726.888C1088.62 737.993 1063.36 762.278 999.622 762.278C935.888 762.278 911.621 744.073 902.519 740.032C893.416 735.972 895.437 719.806 909.6 723.848Z" fill="#231F20"/>
<path fill-rule="evenodd" clip-rule="evenodd" d="M974.336 711.199C974.336 711.199 993.56 719.264 1012.78 711.199C1012.78 711.199 1009.74 726.882 995.581 726.882C981.417 726.882 974.336 711.199 974.336 711.199ZM1991.88 496.249C1991.88 432.873 1919.06 403.188 1897.48 403.188H1786.87C1757.21 403.188 1724.84 427.454 1724.84 459.822C1724.84 492.19 1757.21 517.816 1788.21 517.816C1819.24 517.816 1823.28 494.89 1850.25 494.89C1877.22 494.89 1877.22 535.537 1852.95 535.537C1776.05 535.537 1709.67 590.813 1709.67 654.01C1709.67 736.289 1776.05 791.564 1852.95 791.564C1929.84 791.564 1992.18 736.271 1992.18 654.01C1992.2 624.379 1991.88 559.625 1991.88 496.249Z" fill="#231F20"/>
<path fill-rule="evenodd" clip-rule="evenodd" d="M1876.07 645.693C1876.07 667.26 1871.85 682.621 1848.92 682.621C1831.81 682.621 1824.66 668.53 1824.66 655.386C1824.66 645.944 1837.14 624.359 1859.72 624.359C1874.3 624.377 1876.07 640.293 1876.07 645.693Z" fill="white"/>
<path fill-rule="evenodd" clip-rule="evenodd" d="M3473.6 496.249C3473.6 432.873 3400.78 403.188 3379.2 403.188H3268.61C3238.93 403.188 3206.58 427.454 3206.58 459.822C3206.58 492.19 3238.93 517.816 3269.94 517.816C3300.98 517.816 3305.01 494.89 3332.01 494.89C3358.98 494.89 3358.98 535.537 3334.69 535.537C3257.78 535.537 3191.41 590.813 3191.41 654.01C3191.41 736.289 3257.78 791.564 3334.69 791.564C3411.57 791.564 3473.91 736.271 3473.91 654.01C3473.93 624.379 3473.6 559.625 3473.6 496.249Z" fill="#231F20"/>
<path fill-rule="evenodd" clip-rule="evenodd" d="M3357.8 645.693C3357.8 667.26 3353.58 682.621 3330.65 682.621C3313.54 682.621 3306.38 668.53 3306.38 655.386C3306.38 645.944 3318.85 624.359 3341.45 624.359C3356.04 624.377 3357.8 640.293 3357.8 645.693Z" fill="white"/>
<path fill-rule="evenodd" clip-rule="evenodd" d="M2037.05 734.948C2037.05 808.893 2153.7 810.914 2153.7 734.948V508.392H2175.28C2235.37 508.392 2253.48 399.164 2164.48 399.164C2090.3 399.164 2037.03 440.974 2037.03 508.392L2037.05 734.948Z" fill="#231F20"/>
<path fill-rule="evenodd" clip-rule="evenodd" d="M2527.36 656.072V454.444C2527.36 380.517 2410.71 378.497 2410.71 454.444V652.692C2410.71 690.21 2349.27 690.21 2349.27 652.692V454.444C2349.27 380.517 2232.6 378.497 2232.6 454.444V656.072C2232.6 838.064 2527.36 840.747 2527.36 656.072ZM3080.99 409.917H2980.62V360.042C2980.62 284.094 2863.97 286.114 2863.97 360.042V596.594C2863.97 685.596 2782.14 690.46 2761.91 690.46C2741.68 690.46 2670.26 680.357 2670.26 595.378C2670.26 510.417 2718.81 505.696 2718.81 505.696C2718.81 505.696 2709.39 583.933 2775.46 583.933C2841.54 583.933 2850.98 527.281 2850.98 508.397C2850.98 474.688 2841.56 403.211 2736.36 403.211C2609.57 403.211 2554.27 517.177 2554.27 595.396C2554.27 673.615 2624.37 792.982 2761.91 792.982C2899.48 792.982 2980.62 689.674 2980.62 596.612V506.966H3042.06V736.079C3042.06 809.989 3158.71 812.009 3158.71 736.079V494.913C3158.71 451.744 3117.49 409.917 3080.99 409.917ZM1391.04 915.836C1391.04 884.22 1416.68 860.936 1446.96 860.936C1476.97 860.936 1502.59 884.238 1502.59 915.836C1502.59 947.721 1476.97 971.058 1446.96 971.058C1416.68 971.058 1391.04 947.739 1391.04 915.836Z" fill="#231F20"/>
<path fill-rule="evenodd" clip-rule="evenodd" d="M1446.97 961.881C1471.89 961.881 1491.54 942.353 1491.54 915.851C1491.54 889.796 1471.87 870.125 1446.97 870.125C1421.78 870.125 1402.13 889.796 1402.13 915.851C1402.11 942.353 1421.78 961.881 1446.97 961.881Z" fill="white"/>
<path fill-rule="evenodd" clip-rule="evenodd" d="M1435.32 947.736H1425.7V884.234H1449.87C1464.86 884.234 1472.3 889.796 1472.3 902.296C1472.3 913.687 1465.16 918.605 1455.85 919.803L1473.89 947.736H1463.14L1446.39 920.214H1435.32V947.736Z" fill="#231F20"/>
<path fill-rule="evenodd" clip-rule="evenodd" d="M1446.83 912.059C1454.99 912.059 1462.27 911.469 1462.27 901.723C1462.27 893.873 1455.13 892.406 1448.44 892.406H1435.34V912.077L1446.83 912.059Z" fill="white"/>
<path fill-rule="evenodd" clip-rule="evenodd" d="M3629.49 401.242C3624.02 388.362 3614.28 377.765 3601.9 371.243C3589.52 364.721 3575.27 362.674 3561.55 365.447C3547.84 368.221 3535.5 375.645 3526.63 386.465C3517.76 397.285 3512.89 410.837 3512.86 424.829V740.405C3513.24 756.247 3519.81 771.311 3531.15 782.38C3542.49 793.448 3557.71 799.644 3573.55 799.644C3589.4 799.644 3604.62 793.448 3615.96 782.38C3627.3 771.311 3633.86 756.247 3634.25 740.405V527.333C3645.6 502.154 3693.28 506.07 3693.28 539.1V737.347C3693.28 811.257 3809.93 813.277 3809.93 737.347V535.72C3809.93 431.052 3712.38 385.702 3629.49 401.242Z" fill="#231F20"/>
</g>
<defs>
<clipPath id="clip0_3469_2295">
<rect width="4477" height="1364" fill="white" transform="translate(0.195312)"/>
</clipPath>
</defs>
</svg>
