<svg width="4478" height="1364" viewBox="0 0 4478 1364" fill="none" xmlns="http://www.w3.org/2000/svg">
<path d="M1036.4 845.075C1036.4 872.338 1030.35 896.56 1018.23 917.775C1006.1 941.997 987.923 960.172 966.741 978.347C943.684 997.768 916.862 1012.21 887.959 1020.78C857.688 1029.87 824.345 1035.91 787.994 1035.91C754.684 1035.91 724.38 1032.87 700.157 1029.87C672.894 1026.83 648.672 1020.78 624.416 1014.7C600.193 1008.65 578.977 996.522 557.795 987.435C536.579 975.34 515.363 960.172 491.141 945.038L597.153 851.122C627.456 875.378 657.759 890.513 688.03 899.6C718.333 908.688 748.636 914.735 781.947 914.735C797.082 914.735 809.21 911.728 821.338 908.688C833.196 905.502 844.449 900.389 854.648 893.553C863.736 887.472 869.783 878.385 875.864 872.338C881.911 863.25 884.952 854.163 884.952 845.075C884.952 832.947 881.911 823.86 878.871 814.772C875.864 805.685 866.776 796.597 854.648 790.55C842.52 781.463 827.385 775.415 806.17 766.328C780.609 755.36 754.291 746.249 727.421 739.065C700.158 729.978 672.894 720.89 645.631 708.763C618.368 696.635 597.153 681.5 578.977 666.365C560.802 651.197 542.627 630.015 533.539 608.8C518.404 581.538 512.356 554.275 512.356 523.972C512.356 493.703 518.404 466.44 530.532 442.185C542.627 417.963 560.802 396.747 585.058 378.572C606.24 363.437 633.503 348.303 663.807 339.215C694.11 330.128 727.421 324.047 760.731 324.047C818.297 324.047 869.783 330.128 909.174 345.263C948.565 360.397 984.916 378.572 1015.19 405.835L912.215 499.75C894.039 484.615 872.824 469.447 848.601 460.36C824.345 451.272 797.082 448.265 766.812 448.265C751.643 448.265 739.549 451.272 727.421 454.313C712.285 457.353 703.198 463.4 694.11 469.447C685.022 475.528 678.942 484.615 672.894 493.703C666.847 502.79 663.807 511.878 663.807 520.965C663.807 533.06 666.847 542.147 672.894 551.235C675.935 560.322 685.022 566.403 697.117 575.49C709.245 584.578 724.38 590.625 745.596 599.712C766.812 608.8 791.034 617.888 821.338 626.975C860.696 639.103 890.999 651.197 918.262 666.365C945.525 681.5 966.741 696.635 984.916 714.81C1003.09 732.985 1015.19 751.16 1024.27 772.375C1033.36 793.59 1036.4 817.813 1036.4 845.075ZM1887.6 1026.83H1739.19V723.897H1463.52V1026.83H1315.08V339.215H1463.52V611.84H1739.19V339.215H1887.6V1026.83ZM2708.54 1026.83H2166.32V339.215H2708.54V448.265H2311.72V611.84H2678.23V717.85H2311.72V905.647H2708.54V1026.83ZM3147.79 1026.83H2999.34V339.215H3147.79V1026.83ZM3986.86 339.215V1045L3571.87 684.54V1020.78H3426.46V318L3841.46 678.46V339.215H3986.86Z" fill="#231F20"/>
</svg>
